<svg width="210" height="51" viewBox="0 0 210 51" fill="none" xmlns="http://www.w3.org/2000/svg">
<g clip-path="url(#clip0_451_2)">
<path d="M68.685 38.5408C72.3996 26.5371 87.2587 2.52953 102.118 2.52966C116.977 2.52979 131.836 26.5374 135.551 38.541C139.266 50.5446 131.837 50.5446 124.407 44.5428C116.977 38.5411 109.548 26.5374 102.118 26.5372C94.6883 26.5371 87.2588 38.5409 79.8294 44.5427C72.4 50.5445 64.9704 50.5446 68.685 38.5408Z" fill="#CB7367"/>
<path d="M121.264 9.77929C121.718 10.9778 125.575 16.0712 126.483 17.2696C127.39 18.4681 131.248 23.5615 132.065 24.1606C132.882 24.7597 135.968 24.7597 136.331 22.9621C136.694 21.1645 136.694 5.88432 135.423 4.08656C134.152 2.28879 123.351 2.28879 122.081 2.88811C120.81 3.48743 120.81 8.58082 121.264 9.77929Z" fill="#6A4743"/>
<path d="M160.864 36.1276C160.936 37.0542 161.009 37.9606 161.081 38.8469C161.154 39.6929 161.226 40.5792 161.299 41.5057C161.371 41.9489 161.407 42.392 161.407 42.8352C161.48 43.2783 161.516 43.7215 161.516 44.1646C161.516 46.2997 159.849 47.6694 156.516 48.2737C154.849 48.5557 153.219 48.5557 151.624 48.2737C150.03 47.9514 148.726 47.3874 147.711 46.5817C147.132 46.1788 146.66 45.7357 146.298 45.2523C145.936 44.7689 145.682 44.2854 145.537 43.802C144.958 42.4726 144.486 41.1432 144.124 39.8138C143.834 38.4843 143.544 37.1348 143.255 35.7651C142.602 32.2199 142.276 28.695 142.276 25.1901C142.276 21.645 142.421 18.0999 142.711 14.5548C142.784 13.5476 142.928 12.5808 143.146 11.6542C143.436 10.6873 143.689 9.74062 143.907 8.81406C144.052 8.49178 144.16 8.20978 144.233 7.96807C144.378 7.68607 144.595 7.38392 144.885 7.06164C145.537 6.25593 146.443 5.65165 147.603 5.24879C148.834 4.80564 150.211 4.62439 151.733 4.70496C154.704 4.82581 156.806 5.71208 158.038 7.36379C158.328 7.68607 158.509 8.04863 158.581 8.45151C158.726 8.85436 158.944 9.27737 159.233 9.7205C159.596 9.51907 159.958 9.33777 160.32 9.17664C160.683 9.01549 161.009 8.83421 161.299 8.63278C163.473 7.46452 165.792 6.43723 168.256 5.55095C170.792 4.66466 173.509 3.93952 176.408 3.37552C178.075 3.05324 179.742 2.81152 181.408 2.65039C183.147 2.48926 184.85 2.48926 186.517 2.65039C189.996 3.05324 192.858 3.91938 195.105 5.24879C197.351 6.57821 198.764 8.22994 199.344 10.2039C199.779 11.8556 199.742 13.4268 199.235 14.9173C198.8 16.4079 197.967 17.8984 196.735 19.389C193.039 24.0621 187.242 27.6274 179.343 30.0848C178.328 30.4071 177.278 30.7294 176.191 31.0517C175.104 31.3337 174.053 31.6358 173.038 31.9581C173.401 32.4012 173.872 32.7034 174.451 32.8645C175.901 33.5494 177.35 34.2745 178.799 35.0399C180.249 35.7651 181.771 36.4298 183.365 37.0341C184.597 37.4772 185.865 37.8801 187.169 38.2426C188.546 38.5649 189.923 38.9073 191.3 39.2699C191.372 39.3102 191.59 39.3303 191.952 39.3303C193.764 39.6929 195.141 40.1965 196.083 40.841C197.097 41.4856 197.568 42.2309 197.496 43.0769C197.351 43.8826 196.735 44.6077 195.648 45.2523C194.561 45.8566 193.148 46.2796 191.409 46.5213C189.162 46.763 187.061 46.6422 185.104 46.1587C183.8 45.8364 182.459 45.5141 181.082 45.1919C179.778 44.8293 178.582 44.4063 177.495 43.9229C175.104 42.8755 172.749 41.7676 170.43 40.5993C168.183 39.431 165.9 38.2829 163.581 37.1549C163.219 36.9535 162.857 36.7722 162.494 36.6111L161.407 36.0068C161.19 36.0068 161.009 36.0471 160.864 36.1276ZM177.351 23.5709C179.861 22.4164 181.546 21.0494 182.102 19.4682C182.632 8.36732 161.227 14.0693 158.967 20.5349C157.695 24.8738 163.006 28.643 177.351 23.5709Z" fill="#CB7367"/>
<path d="M34.9666 32.1022C36.6791 31.3795 38.3378 30.6117 39.9425 29.7986C42.5715 28.5445 45.225 27.3459 47.903 26.2027C50.6398 25.0391 53.4256 23.9863 56.2604 23.0443C57.9632 22.4528 59.6597 22.0767 61.3497 21.9159C62.5961 21.8239 64.8316 21.6341 65.6921 22.1878C66.6418 22.4972 66.2156 23.0385 66.6859 23.6423C67.1399 24.2091 67.3379 24.8862 67.2797 25.6734C67.2216 26.4607 66.8371 27.2761 66.1264 28.1196C65.6439 28.7134 65.0782 29.2721 64.4293 29.7958C63.7804 30.3195 63.1151 30.8063 62.4335 31.2561C60.2288 32.7037 57.9164 34.0609 55.4963 35.3276C53.1185 36.537 50.6575 37.7114 48.1132 38.8508C44.2414 40.6644 40.2489 42.4346 36.1356 44.1616C34.9939 44.6434 32.9793 45.7398 32.637 45.4407C25.7157 49.509 20.6426 48.1983 17.2025 41.3071C16.7679 40.4778 16.5137 39.6194 16.2553 38.729C15.6827 36.6691 15.0678 34.6666 14.4105 32.7215C13.7955 30.719 13.2899 28.6573 12.8935 26.5362C12.3827 24.1566 11.9224 21.7382 11.5127 19.2809L10.4598 11.8477C10.4168 11.1381 10.3821 10.447 10.3555 9.77441C10.3876 9.08139 10.5078 8.35776 10.716 7.60355C10.8656 6.86975 11.2109 6.19579 11.7521 5.58165C12.3357 4.91018 13.0352 4.3476 13.8506 3.89392C14.666 3.44025 15.5304 3.0974 16.4439 2.86537C17.416 2.61294 18.416 2.5 19.4439 2.52656C21.5323 2.65354 22.9669 3.36985 23.7477 4.67547C24.3881 5.81678 24.9909 6.94983 25.5563 8.07459C26.1803 9.17896 26.7245 10.3324 27.1887 11.5349C28.1662 14.0507 29.1143 16.5767 30.0331 19.1129C31.5257 23.1502 32.8932 26.3873 34.0351 29.9966L34.9666 32.1022Z" fill="#CB7367"/>
<path d="M90.6936 47.4343C89.4907 46.0333 99.7127 34.1238 102.118 34.1241C104.524 34.1243 114.746 46.0338 113.543 47.4346C112.34 48.8354 91.8966 48.8354 90.6936 47.4343Z" fill="#6A4743"/>
<path d="M21.2445 41.6043C16.8244 47.0756 26.1884 49.8726 36.3105 47.6235C46.4327 45.3743 57.3132 38.0794 62.7663 33.0023C68.2193 27.9253 68.245 25.0657 67.2252 23.2419C66.2053 21.4182 64.1396 20.6301 54.0043 24.3087C43.8691 27.9874 25.6646 36.1329 21.2445 41.6043Z" fill="#CB7367"/>
</g>
<defs>
<clipPath id="clip0_451_2">
<rect width="210" height="51" fill="white"/>
</clipPath>
</defs>
</svg>
