<svg width="24" height="25" viewBox="0 0 24 25" fill="none" xmlns="http://www.w3.org/2000/svg">
<g clip-path="url(#clip0_473_111)">
<path d="M6.76 5.33999L4.96 3.54999L3.55 4.95999L5.34 6.74999L6.76 5.33999ZM4 11H1V13H4V11ZM13 1.04999H11V3.99999H13V1.04999ZM20.45 4.95999L19.04 3.54999L17.25 5.33999L18.66 6.74999L20.45 4.95999ZM17.24 18.66L19.03 20.46L20.44 19.05L18.64 17.26L17.24 18.66ZM20 11V13H23V11H20ZM12 5.99999C8.69 5.99999 6 8.68999 6 12C6 15.31 8.69 18 12 18C15.31 18 18 15.31 18 12C18 8.68999 15.31 5.99999 12 5.99999ZM11 22.95H13V20H11V22.95ZM3.55 19.04L4.96 20.45L6.75 18.65L5.34 17.24L3.55 19.04Z" fill="#482929"/>
</g>
<defs>
<clipPath id="clip0_473_111">
<rect width="24" height="24" fill="white" transform="translate(0 0.5)"/>
</clipPath>
</defs>
</svg>
